<svg width="1065" height="678" viewBox="0 0 1065 678" fill="none" xmlns="http://www.w3.org/2000/svg">
<path d="M52 171.327H326.221" stroke="black" stroke-width="2"/>
<line x1="52" y1="217.429" x2="326.221" y2="217.429" stroke="black" stroke-width="2"/>
<path d="M327 170V218.429" stroke="black" stroke-width="2"/>
<path d="M52 170V218.429" stroke="black" stroke-width="2"/>
<line x1="358.658" y1="275.654" x2="608.782" y2="275.654" stroke="black" stroke-width="2"/>
<path d="M358.658 320.438H608.782" stroke="black" stroke-width="2"/>
<path d="M608.782 274V321.765" stroke="black" stroke-width="2"/>
<path d="M358 274V321.765" stroke="black" stroke-width="2"/>
<path d="M358.657 346.327H608.343" stroke="black" stroke-width="2"/>
<line x1="358.657" y1="391.102" x2="608.343" y2="391.102" stroke="black" stroke-width="2"/>
<path d="M609 345V392.102" stroke="black" stroke-width="2"/>
<path d="M358 345V392.102" stroke="black" stroke-width="2"/>
<path d="M358 420.327L561.374 420.957" stroke="black" stroke-width="2"/>
<line x1="359.252" y1="462.448" x2="562" y2="462.448" stroke="black" stroke-width="2"/>
<path d="M562 420V463.448" stroke="black" stroke-width="2"/>
<path d="M358.626 419V463.448" stroke="black" stroke-width="2"/>
<path d="M358.609 494.327H561.391" stroke="black" stroke-width="2"/>
<path d="M358.609 539.438H561.391" stroke="black" stroke-width="2"/>
<path d="M562 493.324V540.441" stroke="black" stroke-width="2"/>
<path d="M358 493.321V540.437" stroke="black" stroke-width="2"/>
<path d="M358.825 563.654H562.048" stroke="black" stroke-width="2"/>
<path d="M358.5 607.775H563" stroke="black" stroke-width="2"/>
<path d="M562.048 562.667V608.438" stroke="black" stroke-width="2"/>
<path d="M358 562.656V608.781" stroke="black" stroke-width="2"/>
</svg>
